<svg width="58" height="42" viewBox="0 0 58 42" fill="none" xmlns="http://www.w3.org/2000/svg">
<rect width="58" height="42" fill="#D8D8D8"/>
<g id="Home Page" clip-path="url(#clip0_803_177420)">
<rect width="375" height="1929" transform="translate(-90.6094 -1853)" fill="white"/>
<g id="Footer">
<g id="BottomNav" filter="url(#filter0_d_803_177420)">
<rect x="-74.6094" y="-8" width="344" height="62" rx="31" fill="white" fill-opacity="0.8" shape-rendering="crispEdges"/>
<g id=".Slot/BottomNav">
<g id="Icon">
<g id="Swap me">
<path id="Vector" d="M37.2098 3.88C36.6478 3.31723 35.8852 3.0007 35.0898 3H34.0898C34.0898 2.73478 33.9845 2.48043 33.797 2.29289C33.6094 2.10536 33.3551 2 33.0898 2C32.8246 2 32.5703 2.10536 32.3827 2.29289C32.1952 2.48043 32.0898 2.73478 32.0898 3H26.0898C26.0898 2.73478 25.9845 2.48043 25.797 2.29289C25.6094 2.10536 25.3551 2 25.0898 2C24.8246 2 24.5703 2.10536 24.3827 2.29289C24.1952 2.48043 24.0898 2.73478 24.0898 3H23.0898C22.2942 3 21.5311 3.31607 20.9685 3.87868C20.4059 4.44129 20.0898 5.20435 20.0898 6V18C20.0898 18.7956 20.4059 19.5587 20.9685 20.1213C21.5311 20.6839 22.2942 21 23.0898 21H35.0898C35.8855 21 36.6486 20.6839 37.2112 20.1213C37.7738 19.5587 38.0898 18.7956 38.0898 18V6C38.0891 5.20462 37.7726 4.44207 37.2098 3.88ZM25.0898 17C24.8921 17 24.6987 16.9414 24.5343 16.8315C24.3698 16.7216 24.2417 16.5654 24.166 16.3827C24.0903 16.2 24.0705 15.9989 24.1091 15.8049C24.1476 15.6109 24.2429 15.4327 24.3827 15.2929C24.5226 15.153 24.7008 15.0578 24.8948 15.0192C25.0887 14.9806 25.2898 15.0004 25.4725 15.0761C25.6553 15.1518 25.8114 15.28 25.9213 15.4444C26.0312 15.6089 26.0898 15.8022 26.0898 16C26.0898 16.2652 25.9845 16.5196 25.797 16.7071C25.6094 16.8946 25.3551 17 25.0898 17ZM25.0898 13C24.8921 13 24.6987 12.9414 24.5343 12.8315C24.3698 12.7216 24.2417 12.5654 24.166 12.3827C24.0903 12.2 24.0705 11.9989 24.1091 11.8049C24.1476 11.6109 24.2429 11.4327 24.3827 11.2929C24.5226 11.153 24.7008 11.0578 24.8948 11.0192C25.0887 10.9806 25.2898 11.0004 25.4725 11.0761C25.6553 11.1518 25.8114 11.28 25.9213 11.4444C26.0312 11.6089 26.0898 11.8022 26.0898 12C26.0898 12.2652 25.9845 12.5196 25.797 12.7071C25.6094 12.8946 25.3551 13 25.0898 13ZM29.0898 17C28.8921 17 28.6987 16.9414 28.5343 16.8315C28.3698 16.7216 28.2417 16.5654 28.166 16.3827C28.0903 16.2 28.0705 15.9989 28.1091 15.8049C28.1476 15.6109 28.2429 15.4327 28.3827 15.2929C28.5226 15.153 28.7008 15.0578 28.8948 15.0192C29.0887 14.9806 29.2898 15.0004 29.4725 15.0761C29.6553 15.1518 29.8114 15.28 29.9213 15.4444C30.0312 15.6089 30.0898 15.8022 30.0898 16C30.0898 16.2652 29.9845 16.5196 29.797 16.7071C29.6094 16.8946 29.3551 17 29.0898 17ZM29.0898 13C28.8921 13 28.6987 12.9414 28.5343 12.8315C28.3698 12.7216 28.2417 12.5654 28.166 12.3827C28.0903 12.2 28.0705 11.9989 28.1091 11.8049C28.1476 11.6109 28.2429 11.4327 28.3827 11.2929C28.5226 11.153 28.7008 11.0578 28.8948 11.0192C29.0887 10.9806 29.2898 11.0004 29.4725 11.0761C29.6553 11.1518 29.8114 11.28 29.9213 11.4444C30.0312 11.6089 30.0898 11.8022 30.0898 12C30.0898 12.2652 29.9845 12.5196 29.797 12.7071C29.6094 12.8946 29.3551 13 29.0898 13ZM33.0898 13C32.8921 13 32.6987 12.9414 32.5343 12.8315C32.3698 12.7216 32.2417 12.5654 32.166 12.3827C32.0903 12.2 32.0705 11.9989 32.1091 11.8049C32.1476 11.6109 32.2429 11.4327 32.3827 11.2929C32.5226 11.153 32.7008 11.0578 32.8948 11.0192C33.0887 10.9806 33.2898 11.0004 33.4725 11.0761C33.6553 11.1518 33.8114 11.28 33.9213 11.4444C34.0312 11.6089 34.0898 11.8022 34.0898 12C34.0898 12.2652 33.9845 12.5196 33.797 12.7071C33.6094 12.8946 33.3551 13 33.0898 13ZM36.0898 7H22.0898V6C22.0898 5.73478 22.1952 5.48043 22.3827 5.29289C22.5703 5.10536 22.8246 5 23.0898 5H24.0898C24.0898 5.26522 24.1952 5.51957 24.3827 5.70711C24.5703 5.89464 24.8246 6 25.0898 6C25.3551 6 25.6094 5.89464 25.797 5.70711C25.9845 5.51957 26.0898 5.26522 26.0898 5H32.0898C32.0898 5.26522 32.1952 5.51957 32.3827 5.70711C32.5703 5.89464 32.8246 6 33.0898 6C33.3551 6 33.6094 5.89464 33.797 5.70711C33.9845 5.51957 34.0898 5.26522 34.0898 5H35.0898C35.3551 5 35.6094 5.10536 35.797 5.29289C35.9845 5.48043 36.0898 5.73478 36.0898 6V7Z" fill="black" fill-opacity="0.65098"/>
</g>
</g>
<path id="Label" d="M4.37894 31.399L7.27195 39H5.84195L5.14895 37.119H2.11294L1.40894 39H0.000944779L2.94894 31.399H4.37894ZM3.64194 32.917L2.47594 36.063H4.78594L3.66394 32.917H3.64194ZM9.60412 33.313H10.7261V34.193H9.60412V37.075C9.60412 37.339 9.62978 37.5443 9.68112 37.691C9.73245 37.8303 9.80945 37.9293 9.91212 37.988C10.0148 38.0467 10.1541 38.076 10.3301 38.076C10.4621 38.076 10.6088 38.0577 10.7701 38.021V38.989C10.5575 39.055 10.3301 39.088 10.0881 39.088C9.52345 39.088 9.09078 38.945 8.79012 38.659C8.49678 38.373 8.35012 37.8927 8.35012 37.218V34.193H7.42612V33.313H8.35012V31.608H9.60412V33.313ZM13.3304 33.313H14.4524V34.193H13.3304V37.075C13.3304 37.339 13.356 37.5443 13.4074 37.691C13.4587 37.8303 13.5357 37.9293 13.6384 37.988C13.741 38.0467 13.8804 38.076 14.0564 38.076C14.1884 38.076 14.335 38.0577 14.4964 38.021V38.989C14.2837 39.055 14.0564 39.088 13.8144 39.088C13.2497 39.088 12.817 38.945 12.5164 38.659C12.223 38.373 12.0764 37.8927 12.0764 37.218V34.193H11.1524V33.313H12.0764V31.608H13.3304V33.313ZM20.4556 36.47H16.3746C16.3893 36.998 16.5286 37.4197 16.7926 37.735C17.0566 38.043 17.4306 38.197 17.9146 38.197C18.2666 38.197 18.5526 38.1237 18.7726 37.977C19 37.8303 19.1466 37.636 19.2126 37.394H20.3456C20.199 37.966 19.913 38.4023 19.4876 38.703C19.0696 39.0037 18.5306 39.154 17.8706 39.154C17.306 39.154 16.8146 39.0293 16.3966 38.78C15.986 38.5307 15.6706 38.1823 15.4506 37.735C15.238 37.2803 15.1316 36.756 15.1316 36.162C15.1316 35.6047 15.2416 35.0987 15.4616 34.644C15.6816 34.1893 15.997 33.83 16.4076 33.566C16.8183 33.2947 17.295 33.159 17.8376 33.159C18.395 33.159 18.868 33.291 19.2566 33.555C19.6526 33.819 19.9496 34.182 20.1476 34.644C20.353 35.106 20.4556 35.634 20.4556 36.228V36.47ZM19.2126 35.623C19.176 35.161 19.0366 34.798 18.7946 34.534C18.56 34.2627 18.2373 34.127 17.8266 34.127C17.4233 34.127 17.0933 34.259 16.8366 34.523C16.5873 34.787 16.4333 35.1537 16.3746 35.623H19.2126ZM26.4569 39H25.2029V35.733C25.2029 35.1903 25.1076 34.7943 24.9169 34.545C24.7262 34.2883 24.4256 34.16 24.0149 34.16C23.5969 34.16 23.2816 34.2883 23.0689 34.545C22.8562 34.8017 22.7499 35.1977 22.7499 35.733V39H21.4959V33.313H22.7059V34.138H22.7279C22.8966 33.83 23.1239 33.5917 23.4099 33.423C23.6959 33.247 24.0222 33.159 24.3889 33.159C25.0929 33.159 25.6136 33.346 25.9509 33.72C26.2882 34.094 26.4569 34.6513 26.4569 35.392V39ZM33.0145 39H31.8045V38.175H31.7825C31.6285 38.4903 31.3939 38.7323 31.0785 38.901C30.7705 39.0697 30.4222 39.154 30.0335 39.154C29.5055 39.154 29.0545 39.0183 28.6805 38.747C28.3139 38.4757 28.0352 38.1127 27.8445 37.658C27.6612 37.196 27.5695 36.6863 27.5695 36.129C27.5695 35.5863 27.6612 35.0913 27.8445 34.644C28.0352 34.1893 28.3139 33.83 28.6805 33.566C29.0472 33.2947 29.4909 33.159 30.0115 33.159C30.3782 33.159 30.7192 33.247 31.0345 33.423C31.3572 33.599 31.5919 33.841 31.7385 34.149H31.7605V31.146H33.0145V39ZM30.2865 38.186C30.7852 38.186 31.1592 38.0027 31.4085 37.636C31.6652 37.2693 31.7935 36.7743 31.7935 36.151C31.7935 35.557 31.6689 35.073 31.4195 34.699C31.1702 34.3177 30.7925 34.127 30.2865 34.127C29.9639 34.127 29.6925 34.215 29.4725 34.391C29.2525 34.567 29.0875 34.809 28.9775 35.117C28.8675 35.4177 28.8125 35.7623 28.8125 36.151C28.8125 36.5103 28.8639 36.844 28.9665 37.152C29.0765 37.46 29.2415 37.7093 29.4615 37.9C29.6889 38.0907 29.9639 38.186 30.2865 38.186ZM37.7952 35.26C37.7952 34.8567 37.7109 34.5523 37.5422 34.347C37.3809 34.1343 37.0949 34.028 36.6842 34.028C35.9729 34.028 35.5842 34.2847 35.5182 34.798H34.2752C34.3046 34.4533 34.4219 34.1563 34.6272 33.907C34.8326 33.6577 35.1149 33.4707 35.4742 33.346C35.8336 33.214 36.2552 33.148 36.7392 33.148C37.5166 33.148 38.0922 33.324 38.4662 33.676C38.8476 34.028 39.0382 34.5743 39.0382 35.315V39H37.9272L37.8392 38.219H37.8172C37.6852 38.483 37.4652 38.7067 37.1572 38.89C36.8566 39.066 36.4826 39.154 36.0352 39.154C35.6392 39.154 35.2946 39.0843 35.0012 38.945C34.7079 38.8057 34.4806 38.604 34.3192 38.34C34.1579 38.076 34.0772 37.7533 34.0772 37.372C34.0772 36.734 34.3192 36.272 34.8032 35.986C35.2946 35.6927 35.9986 35.546 36.9152 35.546H37.7952V35.26ZM37.0912 36.327C36.5119 36.327 36.0719 36.4003 35.7712 36.547C35.4779 36.6937 35.3312 36.9467 35.3312 37.306C35.3312 37.6067 35.4229 37.834 35.6062 37.988C35.7896 38.1347 36.0389 38.208 36.3542 38.208C36.6256 38.208 36.8712 38.153 37.0912 38.043C37.3112 37.9257 37.4836 37.757 37.6082 37.537C37.7329 37.3097 37.7952 37.0457 37.7952 36.745V36.327H37.0912ZM45.3163 39H44.0623V35.733C44.0623 35.1903 43.967 34.7943 43.7763 34.545C43.5856 34.2883 43.285 34.16 42.8743 34.16C42.4563 34.16 42.141 34.2883 41.9283 34.545C41.7156 34.8017 41.6093 35.1977 41.6093 35.733V39H40.3553V33.313H41.5653V34.138H41.5873C41.756 33.83 41.9833 33.5917 42.2693 33.423C42.5553 33.247 42.8816 33.159 43.2483 33.159C43.9523 33.159 44.473 33.346 44.8103 33.72C45.1476 34.094 45.3163 34.6513 45.3163 35.392V39ZM50.4549 35.051C50.3963 34.7503 50.2643 34.523 50.0589 34.369C49.8536 34.2077 49.5823 34.127 49.2449 34.127C48.9149 34.127 48.6326 34.215 48.3979 34.391C48.1706 34.567 47.9946 34.8053 47.8699 35.106C47.7526 35.4067 47.6939 35.7477 47.6939 36.129C47.6939 36.5177 47.7489 36.8697 47.8589 37.185C47.9763 37.493 48.1486 37.7387 48.3759 37.922C48.6106 38.098 48.8929 38.186 49.2229 38.186C49.5749 38.186 49.8609 38.0907 50.0809 37.9C50.3009 37.7093 50.4366 37.4417 50.4879 37.097H51.6979C51.6393 37.5223 51.4999 37.889 51.2799 38.197C51.0599 38.505 50.7703 38.7433 50.4109 38.912C50.0516 39.0733 49.6373 39.154 49.1679 39.154C48.6033 39.154 48.1156 39.0257 47.7049 38.769C47.2943 38.5123 46.9789 38.1603 46.7589 37.713C46.5463 37.2583 46.4399 36.7523 46.4399 36.195C46.4399 35.5937 46.5573 35.0657 46.7919 34.611C47.0266 34.149 47.3566 33.7933 47.7819 33.544C48.2146 33.2873 48.7059 33.159 49.2559 33.159C49.7179 33.159 50.1213 33.236 50.4659 33.39C50.8179 33.544 51.0966 33.764 51.3019 34.05C51.5073 34.336 51.6283 34.6697 51.6649 35.051H50.4549ZM57.7985 36.47H53.7175C53.7321 36.998 53.8715 37.4197 54.1355 37.735C54.3995 38.043 54.7735 38.197 55.2575 38.197C55.6095 38.197 55.8955 38.1237 56.1155 37.977C56.3428 37.8303 56.4895 37.636 56.5555 37.394H57.6885C57.5418 37.966 57.2558 38.4023 56.8305 38.703C56.4125 39.0037 55.8735 39.154 55.2135 39.154C54.6488 39.154 54.1575 39.0293 53.7395 38.78C53.3288 38.5307 53.0135 38.1823 52.7935 37.735C52.5808 37.2803 52.4745 36.756 52.4745 36.162C52.4745 35.6047 52.5845 35.0987 52.8045 34.644C53.0245 34.1893 53.3398 33.83 53.7505 33.566C54.1611 33.2947 54.6378 33.159 55.1805 33.159C55.7378 33.159 56.2108 33.291 56.5995 33.555C56.9955 33.819 57.2925 34.182 57.4905 34.644C57.6958 35.106 57.7985 35.634 57.7985 36.228V36.47ZM56.5555 35.623C56.5188 35.161 56.3795 34.798 56.1375 34.534C55.9028 34.2627 55.5801 34.127 55.1695 34.127C54.7661 34.127 54.4361 34.259 54.1795 34.523C53.9301 34.787 53.7761 35.1537 53.7175 35.623H56.5555Z" fill="black" fill-opacity="0.65098"/>
</g>
</g>
</g>
</g>
<defs>
<filter id="filter0_d_803_177420" x="-94.6094" y="-28" width="384" height="102" filterUnits="userSpaceOnUse" color-interpolation-filters="sRGB">
<feFlood flood-opacity="0" result="BackgroundImageFix"/>
<feColorMatrix in="SourceAlpha" type="matrix" values="0 0 0 0 0 0 0 0 0 0 0 0 0 0 0 0 0 0 127 0" result="hardAlpha"/>
<feOffset/>
<feGaussianBlur stdDeviation="10"/>
<feComposite in2="hardAlpha" operator="out"/>
<feColorMatrix type="matrix" values="0 0 0 0 0 0 0 0 0 0 0 0 0 0 0 0 0 0 0.16 0"/>
<feBlend mode="normal" in2="BackgroundImageFix" result="effect1_dropShadow_803_177420"/>
<feBlend mode="normal" in="BackgroundImageFix" in2="effect1_dropShadow_803_177420" result="BackgroundImageFix"/>
<feBlend mode="normal" in="SourceGraphic" in2="BackgroundImageFix" result="shape"/>
</filter>
<clipPath id="clip0_803_177420">
<rect width="375" height="1929" fill="white" transform="translate(-90.6094 -1853)"/>
</clipPath>
</defs>
</svg>
