<svg width="38" height="42" viewBox="0 0 38 42" fill="none" xmlns="http://www.w3.org/2000/svg">
<rect width="38" height="42" fill="#D8D8D8"/>
<g id="Home Page" clip-path="url(#clip0_803_177420)">
<rect width="375" height="1929" transform="translate(-39 -1853)" fill="white"/>
<g id="Footer">
<g id="BottomNav" filter="url(#filter0_d_803_177420)">
<rect x="-23" y="-8" width="344" height="62" rx="31" fill="white" fill-opacity="0.8" shape-rendering="crispEdges"/>
<g id="Frame 2147224100">
<rect x="-17" y="-2" width="68" height="50" rx="25" fill="#D6E1EC" fill-opacity="0.8"/>
<g id=".Slot/BottomNav">
<g id="Icon">
<g id="Swap me">
<path id="Vector" d="M28.1698 9.31017L20.5498 2.70017C20.0386 2.25018 19.3809 2.00195 18.6998 2.00195C18.0188 2.00195 17.3611 2.25018 16.8498 2.70017L9.22984 9.31017C8.99731 9.5094 8.82991 9.77382 8.74929 10.0692C8.66867 10.3646 8.67855 10.6774 8.77764 10.9671C8.87673 11.2569 9.06047 11.5102 9.30511 11.6944C9.54974 11.8785 9.844 11.9851 10.1498 12.0002H10.6998V19.0002C10.6998 19.7958 11.0159 20.5589 11.5785 21.1215C12.1411 21.6841 12.9042 22.0002 13.6998 22.0002H16.6998V16.0002H20.6998V22.0002H23.6998C24.4955 22.0002 25.2585 21.6841 25.8212 21.1215C26.3838 20.5589 26.6998 19.7958 26.6998 19.0002V12.0002H27.2498C27.5557 11.9851 27.8499 11.8785 28.0946 11.6944C28.3392 11.5102 28.5229 11.2569 28.622 10.9671C28.7211 10.6774 28.731 10.3646 28.6504 10.0692C28.5698 9.77382 28.4024 9.5094 28.1698 9.31017Z" fill="#0078AD"/>
</g>
</g>
<path id="Label" d="M5.86798 31.399V34.435H9.39898V31.399H10.774V39H9.39898V35.59H5.86798V39H4.49298V31.399H5.86798ZM17.6007 36.162C17.6007 36.7487 17.487 37.2693 17.2597 37.724C17.0323 38.1713 16.706 38.5233 16.2807 38.78C15.8627 39.0293 15.3787 39.154 14.8287 39.154C14.264 39.154 13.769 39.0257 13.3437 38.769C12.9257 38.5123 12.603 38.1603 12.3757 37.713C12.1557 37.2583 12.0457 36.7413 12.0457 36.162C12.0457 35.5753 12.1593 35.0547 12.3867 34.6C12.614 34.1453 12.9367 33.7933 13.3547 33.544C13.7727 33.2873 14.264 33.159 14.8287 33.159C15.3933 33.159 15.8847 33.2873 16.3027 33.544C16.7207 33.8007 17.0397 34.1563 17.2597 34.611C17.487 35.0657 17.6007 35.5827 17.6007 36.162ZM14.8287 38.186C15.1587 38.186 15.4373 38.1017 15.6647 37.933C15.892 37.757 16.0643 37.515 16.1817 37.207C16.299 36.899 16.3577 36.5507 16.3577 36.162C16.3577 35.8027 16.3027 35.469 16.1927 35.161C16.09 34.853 15.9213 34.6037 15.6867 34.413C15.4593 34.2223 15.1697 34.127 14.8177 34.127C14.5023 34.127 14.231 34.215 14.0037 34.391C13.7763 34.5597 13.6003 34.798 13.4757 35.106C13.3583 35.4067 13.2997 35.7587 13.2997 36.162C13.2997 36.558 13.3583 36.91 13.4757 37.218C13.593 37.526 13.7653 37.7643 13.9927 37.933C14.2273 38.1017 14.506 38.186 14.8287 38.186ZM23.2739 34.16C23.4573 33.8373 23.6956 33.5917 23.9889 33.423C24.2823 33.247 24.6196 33.159 25.0009 33.159C25.6243 33.159 26.1046 33.3423 26.4419 33.709C26.7793 34.0757 26.9479 34.5963 26.9479 35.271V39H25.6939V35.733C25.6939 35.1903 25.6059 34.7943 25.4299 34.545C25.2539 34.2883 24.9863 34.16 24.6269 34.16C23.8643 34.16 23.4829 34.6843 23.4829 35.733V39H22.2289V35.733C22.2289 35.1903 22.1409 34.7943 21.9649 34.545C21.7963 34.2883 21.5286 34.16 21.1619 34.16C20.3993 34.16 20.0179 34.6843 20.0179 35.733V39H18.7639V33.313H19.9409V34.127H19.9629C20.1463 33.819 20.3773 33.5807 20.6559 33.412C20.9346 33.2433 21.2536 33.159 21.6129 33.159C22.4636 33.159 23.0173 33.4927 23.2739 34.16ZM33.3502 36.47H29.2692C29.2839 36.998 29.4232 37.4197 29.6872 37.735C29.9512 38.043 30.3252 38.197 30.8092 38.197C31.1612 38.197 31.4472 38.1237 31.6672 37.977C31.8945 37.8303 32.0412 37.636 32.1072 37.394H33.2402C33.0935 37.966 32.8075 38.4023 32.3822 38.703C31.9642 39.0037 31.4252 39.154 30.7652 39.154C30.2005 39.154 29.7092 39.0293 29.2912 38.78C28.8805 38.5307 28.5652 38.1823 28.3452 37.735C28.1325 37.2803 28.0262 36.756 28.0262 36.162C28.0262 35.6047 28.1362 35.0987 28.3562 34.644C28.5762 34.1893 28.8915 33.83 29.3022 33.566C29.7129 33.2947 30.1895 33.159 30.7322 33.159C31.2895 33.159 31.7625 33.291 32.1512 33.555C32.5472 33.819 32.8442 34.182 33.0422 34.644C33.2475 35.106 33.3502 35.634 33.3502 36.228V36.47ZM32.1072 35.623C32.0705 35.161 31.9312 34.798 31.6892 34.534C31.4545 34.2627 31.1319 34.127 30.7212 34.127C30.3179 34.127 29.9879 34.259 29.7312 34.523C29.4819 34.787 29.3279 35.1537 29.2692 35.623H32.1072Z" fill="#0078AD"/>
</g>
</g>
</g>
</g>
</g>
<defs>
<filter id="filter0_d_803_177420" x="-43" y="-28" width="384" height="102" filterUnits="userSpaceOnUse" color-interpolation-filters="sRGB">
<feFlood flood-opacity="0" result="BackgroundImageFix"/>
<feColorMatrix in="SourceAlpha" type="matrix" values="0 0 0 0 0 0 0 0 0 0 0 0 0 0 0 0 0 0 127 0" result="hardAlpha"/>
<feOffset/>
<feGaussianBlur stdDeviation="10"/>
<feComposite in2="hardAlpha" operator="out"/>
<feColorMatrix type="matrix" values="0 0 0 0 0 0 0 0 0 0 0 0 0 0 0 0 0 0 0.16 0"/>
<feBlend mode="normal" in2="BackgroundImageFix" result="effect1_dropShadow_803_177420"/>
<feBlend mode="normal" in="BackgroundImageFix" in2="effect1_dropShadow_803_177420" result="BackgroundImageFix"/>
<feBlend mode="normal" in="SourceGraphic" in2="BackgroundImageFix" result="shape"/>
</filter>
<clipPath id="clip0_803_177420">
<rect width="375" height="1929" fill="white" transform="translate(-39 -1853)"/>
</clipPath>
</defs>
</svg>
