<svg width="38" height="42" viewBox="0 0 38 42" fill="none" xmlns="http://www.w3.org/2000/svg">
<rect width="38" height="42" fill="#D8D8D8"/>
<g id="Home Page" clip-path="url(#clip0_803_177420)">
<rect width="375" height="1929" transform="translate(-302 -1853)" fill="white"/>
<g id="Footer">
<g id="BottomNav" filter="url(#filter0_d_803_177420)">
<rect x="-286" y="-8" width="344" height="62" rx="31" fill="white" fill-opacity="0.8" shape-rendering="crispEdges"/>
<g id=".Slot/BottomNav">
<g id="Icon">
<g id="Swap me">
<path id="Vector" d="M15.6992 2.99989H11.6992C11.1688 2.99989 10.6601 3.2106 10.285 3.58567C9.90993 3.96075 9.69922 4.46945 9.69922 4.99989V8.99989C9.69922 9.53032 9.90993 10.039 10.285 10.4141C10.6601 10.7892 11.1688 10.9999 11.6992 10.9999H15.6992C16.2297 10.9999 16.7384 10.7892 17.1134 10.4141C17.4885 10.039 17.6992 9.53032 17.6992 8.99989V4.99989C17.6992 4.46945 17.4885 3.96075 17.1134 3.58567C16.7384 3.2106 16.2297 2.99989 15.6992 2.99989ZM15.6992 12.9999H11.6992C11.1688 12.9999 10.6601 13.2106 10.285 13.5857C9.90993 13.9607 9.69922 14.4695 9.69922 14.9999V18.9999C9.69922 19.5303 9.90993 20.039 10.285 20.4141C10.6601 20.7892 11.1688 20.9999 11.6992 20.9999H15.6992C16.2297 20.9999 16.7384 20.7892 17.1134 20.4141C17.4885 20.039 17.6992 19.5303 17.6992 18.9999V14.9999C17.6992 14.4695 17.4885 13.9607 17.1134 13.5857C16.7384 13.2106 16.2297 12.9999 15.6992 12.9999ZM27.8592 5.58989L25.1092 2.83989C24.7345 2.46738 24.2276 2.2583 23.6992 2.2583C23.1708 2.2583 22.6639 2.46738 22.2892 2.83989L19.5392 5.58989C19.1667 5.96461 18.9576 6.47152 18.9576 6.99989C18.9576 7.52826 19.1667 8.03516 19.5392 8.40989L22.2892 11.1599C22.6639 11.5324 23.1708 11.7415 23.6992 11.7415C24.2276 11.7415 24.7345 11.5324 25.1092 11.1599L27.8592 8.40989C28.2317 8.03516 28.4408 7.52826 28.4408 6.99989C28.4408 6.47152 28.2317 5.96461 27.8592 5.58989ZM25.6992 12.9999H21.6992C21.1688 12.9999 20.6601 13.2106 20.285 13.5857C19.9099 13.9607 19.6992 14.4695 19.6992 14.9999V18.9999C19.6992 19.5303 19.9099 20.039 20.285 20.4141C20.6601 20.7892 21.1688 20.9999 21.6992 20.9999H25.6992C26.2297 20.9999 26.7384 20.7892 27.1134 20.4141C27.4885 20.039 27.6992 19.5303 27.6992 18.9999V14.9999C27.6992 14.4695 27.4885 13.9607 27.1134 13.5857C26.7384 13.2106 26.2297 12.9999 25.6992 12.9999Z" fill="black" fill-opacity="0.65098"/>
</g>
</g>
<path id="Label" d="M7.34232 31.399L9.37732 37.075H9.39932L11.3793 31.399H13.3263V39H12.0283V33.236H12.0063L9.91632 39H8.80532L6.71532 33.258H6.69332V39H5.38432V31.399H7.34232ZM19.8606 36.47H15.7796C15.7942 36.998 15.9336 37.4197 16.1976 37.735C16.4616 38.043 16.8356 38.197 17.3196 38.197C17.6716 38.197 17.9576 38.1237 18.1776 37.977C18.4049 37.8303 18.5516 37.636 18.6176 37.394H19.7506C19.6039 37.966 19.3179 38.4023 18.8926 38.703C18.4746 39.0037 17.9356 39.154 17.2756 39.154C16.7109 39.154 16.2196 39.0293 15.8016 38.78C15.3909 38.5307 15.0756 38.1823 14.8556 37.735C14.6429 37.2803 14.5366 36.756 14.5366 36.162C14.5366 35.6047 14.6466 35.0987 14.8666 34.644C15.0866 34.1893 15.4019 33.83 15.8126 33.566C16.2232 33.2947 16.6999 33.159 17.2426 33.159C17.7999 33.159 18.2729 33.291 18.6616 33.555C19.0576 33.819 19.3546 34.182 19.5526 34.644C19.7579 35.106 19.8606 35.634 19.8606 36.228V36.47ZM18.6176 35.623C18.5809 35.161 18.4416 34.798 18.1996 34.534C17.9649 34.2627 17.6422 34.127 17.2316 34.127C16.8282 34.127 16.4982 34.259 16.2416 34.523C15.9922 34.787 15.8382 35.1537 15.7796 35.623H18.6176ZM25.8619 39H24.6079V35.733C24.6079 35.1903 24.5125 34.7943 24.3219 34.545C24.1312 34.2883 23.8305 34.16 23.4199 34.16C23.0019 34.16 22.6865 34.2883 22.4739 34.545C22.2612 34.8017 22.1549 35.1977 22.1549 35.733V39H20.9009V33.313H22.1109V34.138H22.1329C22.3015 33.83 22.5289 33.5917 22.8149 33.423C23.1009 33.247 23.4272 33.159 23.7939 33.159C24.4979 33.159 25.0185 33.346 25.3559 33.72C25.6932 34.094 25.8619 34.6513 25.8619 35.392V39ZM28.4485 36.58C28.4485 37.1227 28.5438 37.5223 28.7345 37.779C28.9252 38.0283 29.2258 38.153 29.6365 38.153C30.0545 38.153 30.3698 38.0247 30.5825 37.768C30.7952 37.5113 30.9015 37.1153 30.9015 36.58V33.313H32.1555V39H30.9455V38.186H30.9235C30.7622 38.494 30.5348 38.7323 30.2415 38.901C29.9555 39.0697 29.6292 39.154 29.2625 39.154C27.8838 39.154 27.1945 38.4097 27.1945 36.921V33.313H28.4485V36.58Z" fill="black" fill-opacity="0.65098"/>
</g>
</g>
</g>
</g>
<defs>
<filter id="filter0_d_803_177420" x="-306" y="-28" width="384" height="102" filterUnits="userSpaceOnUse" color-interpolation-filters="sRGB">
<feFlood flood-opacity="0" result="BackgroundImageFix"/>
<feColorMatrix in="SourceAlpha" type="matrix" values="0 0 0 0 0 0 0 0 0 0 0 0 0 0 0 0 0 0 127 0" result="hardAlpha"/>
<feOffset/>
<feGaussianBlur stdDeviation="10"/>
<feComposite in2="hardAlpha" operator="out"/>
<feColorMatrix type="matrix" values="0 0 0 0 0 0 0 0 0 0 0 0 0 0 0 0 0 0 0.16 0"/>
<feBlend mode="normal" in2="BackgroundImageFix" result="effect1_dropShadow_803_177420"/>
<feBlend mode="normal" in="BackgroundImageFix" in2="effect1_dropShadow_803_177420" result="BackgroundImageFix"/>
<feBlend mode="normal" in="SourceGraphic" in2="BackgroundImageFix" result="shape"/>
</filter>
<clipPath id="clip0_803_177420">
<rect width="375" height="1929" fill="white" transform="translate(-302 -1853)"/>
</clipPath>
</defs>
</svg>
