<svg width="38" height="42" viewBox="0 0 38 42" fill="none" xmlns="http://www.w3.org/2000/svg">
<rect width="38" height="42" fill="#D8D8D8"/>
<g id="Home Page" clip-path="url(#clip0_803_177420)">
<rect width="375" height="1929" transform="translate(-168 -1853)" fill="white"/>
<g id="Footer">
<g id="BottomNav" filter="url(#filter0_d_803_177420)">
<rect x="-152" y="-8" width="344" height="62" rx="31" fill="white" fill-opacity="0.8" shape-rendering="crispEdges"/>
<g id=".Slot/BottomNav">
<g id="ic_rupee_coin">
<path id="Vector" d="M18.6992 2C16.7214 2 14.788 2.58649 13.1435 3.6853C11.499 4.78412 10.2173 6.3459 9.46043 8.17317C8.70355 10.0004 8.50552 12.0111 8.89137 13.9509C9.27722 15.8907 10.2296 17.6725 11.6282 19.0711C13.0267 20.4696 14.8085 21.422 16.7483 21.8079C18.6881 22.1937 20.6988 21.9957 22.5261 21.2388C24.3533 20.4819 25.9151 19.2002 27.0139 17.5557C28.1127 15.9112 28.6992 13.9778 28.6992 12C28.6992 10.6868 28.4406 9.38642 27.938 8.17317C27.4355 6.95991 26.6989 5.85752 25.7703 4.92893C24.8417 4.00035 23.7393 3.26375 22.5261 2.7612C21.3128 2.25866 20.0124 2 18.6992 2ZM22.6992 10C22.9644 10 23.2188 10.1054 23.4063 10.2929C23.5939 10.4804 23.6992 10.7348 23.6992 11C23.6992 11.2652 23.5939 11.5196 23.4063 11.7071C23.2188 11.8946 22.9644 12 22.6992 12H21.5592C21.39 12.644 21.0626 13.2356 20.6068 13.721C20.151 14.2065 19.5813 14.5705 18.9492 14.78L21.2092 16.14C21.3976 16.2518 21.5441 16.4224 21.6262 16.6255C21.7082 16.8287 21.7213 17.0531 21.6633 17.2644C21.6054 17.4757 21.4797 17.6621 21.3055 17.795C21.1313 17.9279 20.9183 17.9999 20.6992 18C20.5197 17.9999 20.3436 17.9516 20.1892 17.86L15.1892 14.86C15.1892 14.86 15.1292 14.8 15.0992 14.78C15.0423 14.7413 14.9917 14.6941 14.9492 14.64L14.8392 14.49C14.8067 14.4328 14.7799 14.3725 14.7592 14.31C14.7536 14.2435 14.7536 14.1765 14.7592 14.11L14.6992 14C14.6992 14 14.6992 14 14.6992 13.93C14.6946 13.8668 14.6946 13.8032 14.6992 13.74C14.7165 13.6746 14.7399 13.611 14.7692 13.55C14.7692 13.55 14.7692 13.55 14.7692 13.49C14.7692 13.43 14.8292 13.43 14.8492 13.4C14.8879 13.3431 14.9351 13.2925 14.9892 13.25C15.0385 13.2077 15.0921 13.1709 15.1492 13.14L15.3092 13.06H15.5192L15.6992 13H17.6992C18.0483 12.9979 18.3906 12.9045 18.6924 12.7291C18.9941 12.5536 19.2447 12.3023 19.4192 12H14.6992C14.434 12 14.1797 11.8946 13.9921 11.7071C13.8046 11.5196 13.6992 11.2652 13.6992 11C13.6992 10.7348 13.8046 10.4804 13.9921 10.2929C14.1797 10.1054 14.434 10 14.6992 10H19.4192C19.2447 9.69772 18.9941 9.44638 18.6924 9.27095C18.3906 9.09552 18.0483 9.00211 17.6992 9H14.6992C14.434 9 14.1797 8.89464 13.9921 8.70711C13.8046 8.51957 13.6992 8.26522 13.6992 8C13.6992 7.73478 13.8046 7.48043 13.9921 7.29289C14.1797 7.10536 14.434 7 14.6992 7H22.6992C22.9644 7 23.2188 7.10536 23.4063 7.29289C23.5939 7.48043 23.6992 7.73478 23.6992 8C23.6992 8.26522 23.5939 8.51957 23.4063 8.70711C23.2188 8.89464 22.9644 9 22.6992 9H21.1392C21.3257 9.31184 21.4671 9.64852 21.5592 10H22.6992Z" fill="black" fill-opacity="0.65098"/>
</g>
<path id="Label" d="M6.00995 31.399C6.53061 31.399 6.97795 31.498 7.35195 31.696C7.72595 31.894 8.00828 32.1727 8.19895 32.532C8.39695 32.884 8.49595 33.291 8.49595 33.753C8.49595 34.2297 8.39695 34.6477 8.19895 35.007C8.00095 35.359 7.71495 35.634 7.34095 35.832C6.96695 36.0227 6.51961 36.118 5.99895 36.118H3.93095V39H2.55595V31.399H6.00995ZM5.64695 35.018C6.14561 35.018 6.52328 34.919 6.77995 34.721C7.03661 34.5157 7.16495 34.1967 7.16495 33.764C7.16495 32.9207 6.66261 32.499 5.65795 32.499H3.93095V35.018H5.64695ZM12.6225 35.26C12.6225 34.8567 12.5382 34.5523 12.3695 34.347C12.2082 34.1343 11.9222 34.028 11.5115 34.028C10.8002 34.028 10.4115 34.2847 10.3455 34.798H9.10249C9.13183 34.4533 9.24916 34.1563 9.45449 33.907C9.65983 33.6577 9.94216 33.4707 10.3015 33.346C10.6608 33.214 11.0825 33.148 11.5665 33.148C12.3438 33.148 12.9195 33.324 13.2935 33.676C13.6748 34.028 13.8655 34.5743 13.8655 35.315V39H12.7545L12.6665 38.219H12.6445C12.5125 38.483 12.2925 38.7067 11.9845 38.89C11.6838 39.066 11.3098 39.154 10.8625 39.154C10.4665 39.154 10.1218 39.0843 9.82849 38.945C9.53516 38.8057 9.30783 38.604 9.14649 38.34C8.98516 38.076 8.90449 37.7533 8.90449 37.372C8.90449 36.734 9.14649 36.272 9.63049 35.986C10.1218 35.6927 10.8258 35.546 11.7425 35.546H12.6225V35.26ZM11.9185 36.327C11.3392 36.327 10.8992 36.4003 10.5985 36.547C10.3052 36.6937 10.1585 36.9467 10.1585 37.306C10.1585 37.6067 10.2502 37.834 10.4335 37.988C10.6168 38.1347 10.8662 38.208 11.1815 38.208C11.4528 38.208 11.6985 38.153 11.9185 38.043C12.1385 37.9257 12.3108 37.757 12.4355 37.537C12.5602 37.3097 12.6225 37.0457 12.6225 36.745V36.327H11.9185ZM17.3056 37.548H17.3276L18.7026 33.313H19.9896L17.9546 38.945C17.7492 39.539 17.4999 39.9937 17.2066 40.309C16.9132 40.6317 16.5979 40.848 16.2606 40.958C15.9232 41.0753 15.5419 41.1413 15.1166 41.156V40.111C15.5346 40.0963 15.8609 40.001 16.0956 39.825C16.3376 39.6563 16.5282 39.3777 16.6676 38.989L14.5556 33.313H15.8866L17.3056 37.548ZM23.9813 34.369C23.8493 34.3397 23.6989 34.325 23.5303 34.325C23.0023 34.325 22.6026 34.4937 22.3313 34.831C22.0673 35.1683 21.9353 35.6157 21.9353 36.173V39H20.6923V33.313H21.8913V34.336H21.9133C22.0379 33.9767 22.2433 33.6907 22.5293 33.478C22.8226 33.2653 23.1636 33.159 23.5523 33.159C23.7063 33.159 23.8493 33.1737 23.9813 33.203V34.369ZM29.8932 36.162C29.8932 36.7487 29.7795 37.2693 29.5522 37.724C29.3248 38.1713 28.9985 38.5233 28.5732 38.78C28.1552 39.0293 27.6712 39.154 27.1212 39.154C26.5565 39.154 26.0615 39.0257 25.6362 38.769C25.2182 38.5123 24.8955 38.1603 24.6682 37.713C24.4482 37.2583 24.3382 36.7413 24.3382 36.162C24.3382 35.5753 24.4518 35.0547 24.6792 34.6C24.9065 34.1453 25.2292 33.7933 25.6472 33.544C26.0652 33.2873 26.5565 33.159 27.1212 33.159C27.6858 33.159 28.1772 33.2873 28.5952 33.544C29.0132 33.8007 29.3322 34.1563 29.5522 34.611C29.7795 35.0657 29.8932 35.5827 29.8932 36.162ZM27.1212 38.186C27.4512 38.186 27.7298 38.1017 27.9572 37.933C28.1845 37.757 28.3568 37.515 28.4742 37.207C28.5915 36.899 28.6502 36.5507 28.6502 36.162C28.6502 35.8027 28.5952 35.469 28.4852 35.161C28.3825 34.853 28.2138 34.6037 27.9792 34.413C27.7518 34.2223 27.4622 34.127 27.1102 34.127C26.7948 34.127 26.5235 34.215 26.2962 34.391C26.0688 34.5597 25.8928 34.798 25.7682 35.106C25.6508 35.4067 25.5922 35.7587 25.5922 36.162C25.5922 36.558 25.6508 36.91 25.7682 37.218C25.8855 37.526 26.0578 37.7643 26.2852 37.933C26.5198 38.1017 26.7985 38.186 27.1212 38.186ZM32.3104 31.146V39H31.0564V31.146H32.3104ZM34.9625 31.146V39H33.7085V31.146H34.9625Z" fill="black" fill-opacity="0.65098"/>
</g>
</g>
</g>
</g>
<defs>
<filter id="filter0_d_803_177420" x="-172" y="-28" width="384" height="102" filterUnits="userSpaceOnUse" color-interpolation-filters="sRGB">
<feFlood flood-opacity="0" result="BackgroundImageFix"/>
<feColorMatrix in="SourceAlpha" type="matrix" values="0 0 0 0 0 0 0 0 0 0 0 0 0 0 0 0 0 0 127 0" result="hardAlpha"/>
<feOffset/>
<feGaussianBlur stdDeviation="10"/>
<feComposite in2="hardAlpha" operator="out"/>
<feColorMatrix type="matrix" values="0 0 0 0 0 0 0 0 0 0 0 0 0 0 0 0 0 0 0.16 0"/>
<feBlend mode="normal" in2="BackgroundImageFix" result="effect1_dropShadow_803_177420"/>
<feBlend mode="normal" in="BackgroundImageFix" in2="effect1_dropShadow_803_177420" result="BackgroundImageFix"/>
<feBlend mode="normal" in="SourceGraphic" in2="BackgroundImageFix" result="shape"/>
</filter>
<clipPath id="clip0_803_177420">
<rect width="375" height="1929" fill="white" transform="translate(-168 -1853)"/>
</clipPath>
</defs>
</svg>
