<svg width="54" height="42" viewBox="0 0 54 42" fill="none" xmlns="http://www.w3.org/2000/svg">
<rect width="54" height="42" fill="#D8D8D8"/>
<g id="Home Page" clip-path="url(#clip0_803_177420)">
<rect width="375" height="1929" transform="translate(-227.207 -1853)" fill="white"/>
<g id="Footer">
<g id="BottomNav" filter="url(#filter0_d_803_177420)">
<rect x="-211.207" y="-8" width="344" height="62" rx="31" fill="white" fill-opacity="0.8" shape-rendering="crispEdges"/>
<g id=".Slot/BottomNav">
<g id="ic_money_request">
<path id="Vector" d="M33.4922 11C32.1661 11 30.8943 10.4732 29.9567 9.53555C29.019 8.59787 28.4922 7.3261 28.4922 6.00002C28.4948 5.66432 28.5282 5.32958 28.5922 5.00002H19.4922C18.6965 5.00002 17.9335 5.31609 17.3709 5.8787C16.8083 6.44131 16.4922 7.20437 16.4922 8.00002V16C16.4922 16.7957 16.8083 17.5587 17.3709 18.1213C17.9335 18.6839 18.6965 19 19.4922 19H33.4922C34.2878 19 35.0509 18.6839 35.6135 18.1213C36.1761 17.5587 36.4922 16.7957 36.4922 16V10C35.6267 10.6491 34.574 11 33.4922 11ZM25.4922 11C25.4922 11.4465 25.3926 11.8874 25.2006 12.2905C25.0085 12.6936 24.7289 13.0487 24.3822 13.33L25.9422 14.11C26.1777 14.2299 26.3562 14.4381 26.4387 14.6892C26.5211 14.9403 26.5008 15.2138 26.3822 15.45C26.2991 15.6149 26.1719 15.7536 26.0149 15.8507C25.8578 15.9478 25.6769 15.9995 25.4922 16C25.3353 16.0019 25.1805 15.9641 25.0422 15.89L21.0422 13.89C20.8429 13.7879 20.6836 13.6219 20.5899 13.4185C20.4962 13.2152 20.4734 12.9862 20.5253 12.7684C20.5772 12.5505 20.7007 12.3564 20.876 12.2171C21.0513 12.0778 21.2683 12.0013 21.4922 12H22.4922C22.7574 12 23.0118 11.8947 23.1993 11.7071C23.3868 11.5196 23.4922 11.2652 23.4922 11C23.4922 10.7348 23.3868 10.4804 23.1993 10.2929C23.0118 10.1054 22.7574 10 22.4922 10H20.4922C20.227 10 19.9726 9.89466 19.7851 9.70712C19.5975 9.51959 19.4922 9.26523 19.4922 9.00002C19.4922 8.7348 19.5975 8.48045 19.7851 8.29291C19.9726 8.10537 20.227 8.00002 20.4922 8.00002H25.4922C25.7574 8.00002 26.0118 8.10537 26.1993 8.29291C26.3868 8.48045 26.4922 8.7348 26.4922 9.00002C26.4922 9.26523 26.3868 9.51959 26.1993 9.70712C26.0118 9.89466 25.7574 10 25.4922 10H25.3122C25.4286 10.3207 25.4895 10.6589 25.4922 11ZM30.7822 6.71002L32.7822 8.71002C32.9705 8.89832 33.2259 9.00411 33.4922 9.00411C33.7585 9.00411 34.0139 8.89832 34.2022 8.71002C34.3905 8.52171 34.4963 8.26632 34.4963 8.00002C34.4963 7.73372 34.3905 7.47832 34.2022 7.29002L33.9022 7.00002H35.4922C35.7574 7.00002 36.0118 6.89466 36.1993 6.70712C36.3868 6.51959 36.4922 6.26523 36.4922 6.00002C36.4922 5.7348 36.3868 5.48045 36.1993 5.29291C36.0118 5.10537 35.7574 5.00002 35.4922 5.00002H33.9022L34.2022 4.71002C34.2959 4.61705 34.3703 4.50645 34.4211 4.38459C34.4718 4.26273 34.498 4.13203 34.498 4.00002C34.498 3.868 34.4718 3.7373 34.4211 3.61544C34.3703 3.49358 34.2959 3.38298 34.2022 3.29002C34.1087 3.19734 33.9979 3.12401 33.8761 3.07425C33.7543 3.02448 33.6238 2.99926 33.4922 3.00002C33.3606 2.99926 33.2301 3.02448 33.1083 3.07425C32.9864 3.12401 32.8756 3.19734 32.7822 3.29002L30.7822 5.29002C30.6911 5.38512 30.6198 5.49727 30.5722 5.62002C30.518 5.73939 30.49 5.86894 30.49 6.00002C30.49 6.13109 30.518 6.26065 30.5722 6.38002C30.6198 6.50277 30.6911 6.61491 30.7822 6.71002Z" fill="black" fill-opacity="0.65098"/>
</g>
<path id="Label" d="M3.89411 31.399C4.33411 31.399 4.72644 31.487 5.07111 31.663C5.42311 31.8317 5.69444 32.0737 5.88511 32.389C6.07577 32.697 6.1711 33.0527 6.1711 33.456C6.1711 33.786 6.11244 34.0903 5.99511 34.369C5.88511 34.6403 5.72377 34.8677 5.5111 35.051C5.30577 35.227 5.06744 35.3443 4.7961 35.403V35.425C5.11877 35.4983 5.36444 35.634 5.53311 35.832C5.70177 36.03 5.84111 36.3563 5.95111 36.811C6.06844 37.2657 6.2041 37.9953 6.35811 39H5.0051C4.90244 38.2887 4.81077 37.7423 4.73011 37.361C4.64944 36.9797 4.57611 36.7157 4.5101 36.569C4.4441 36.4223 4.3671 36.3013 4.27911 36.206C4.07377 36.008 3.78044 35.909 3.3991 35.909H1.3751V39H0.000104859V31.399H3.89411ZM3.4981 34.886C3.89411 34.886 4.20944 34.787 4.44411 34.589C4.6861 34.3837 4.8071 34.083 4.8071 33.687C4.8071 32.895 4.36344 32.499 3.4761 32.499H1.3751V34.886H3.4981ZM12.5318 36.47H8.45077C8.46544 36.998 8.60477 37.4197 8.86877 37.735C9.13277 38.043 9.50677 38.197 9.99077 38.197C10.3428 38.197 10.6288 38.1237 10.8488 37.977C11.0761 37.8303 11.2228 37.636 11.2888 37.394H12.4218C12.2751 37.966 11.9891 38.4023 11.5638 38.703C11.1458 39.0037 10.6068 39.154 9.94677 39.154C9.3821 39.154 8.89077 39.0293 8.47277 38.78C8.0621 38.5307 7.74677 38.1823 7.52677 37.735C7.3141 37.2803 7.20777 36.756 7.20777 36.162C7.20777 35.6047 7.31777 35.0987 7.53777 34.644C7.75777 34.1893 8.0731 33.83 8.48377 33.566C8.89444 33.2947 9.3711 33.159 9.91377 33.159C10.4711 33.159 10.9441 33.291 11.3328 33.555C11.7288 33.819 12.0258 34.182 12.2238 34.644C12.4291 35.106 12.5318 35.634 12.5318 36.228V36.47ZM11.2888 35.623C11.2521 35.161 11.1128 34.798 10.8708 34.534C10.6361 34.2627 10.3134 34.127 9.90277 34.127C9.49944 34.127 9.16944 34.259 8.91277 34.523C8.66344 34.787 8.50944 35.1537 8.45077 35.623H11.2888ZM15.002 31.608C15.002 31.8207 14.9287 32.0003 14.782 32.147C14.6427 32.2863 14.4594 32.356 14.232 32.356C14.012 32.356 13.8287 32.2863 13.682 32.147C13.5427 32.0003 13.473 31.8207 13.473 31.608C13.473 31.3953 13.5427 31.2193 13.682 31.08C13.8287 30.9333 14.012 30.86 14.232 30.86C14.4594 30.86 14.6427 30.9333 14.782 31.08C14.9287 31.2193 15.002 31.3953 15.002 31.608ZM14.859 33.313V39H13.605V33.313H14.859ZM20.7671 34.16C20.9504 33.8373 21.1887 33.5917 21.4821 33.423C21.7754 33.247 22.1127 33.159 22.4941 33.159C23.1174 33.159 23.5977 33.3423 23.9351 33.709C24.2724 34.0757 24.4411 34.5963 24.4411 35.271V39H23.1871V35.733C23.1871 35.1903 23.0991 34.7943 22.9231 34.545C22.7471 34.2883 22.4794 34.16 22.1201 34.16C21.3574 34.16 20.9761 34.6843 20.9761 35.733V39H19.7221V35.733C19.7221 35.1903 19.6341 34.7943 19.4581 34.545C19.2894 34.2883 19.0217 34.16 18.6551 34.16C17.8924 34.16 17.5111 34.6843 17.5111 35.733V39H16.2571V33.313H17.4341V34.127H17.4561C17.6394 33.819 17.8704 33.5807 18.1491 33.412C18.4277 33.2433 18.7467 33.159 19.1061 33.159C19.9567 33.159 20.5104 33.4927 20.7671 34.16ZM27.0373 34.149H27.0593C27.2133 33.8483 27.4517 33.61 27.7743 33.434C28.097 33.2507 28.4563 33.159 28.8523 33.159C29.2923 33.159 29.692 33.2763 30.0513 33.511C30.4107 33.7457 30.693 34.0903 30.8983 34.545C31.1037 34.9923 31.2063 35.5277 31.2063 36.151C31.2063 36.7597 31.1037 37.2913 30.8983 37.746C30.7003 38.2007 30.4217 38.549 30.0623 38.791C29.7103 39.033 29.3033 39.154 28.8413 39.154C28.4087 39.154 28.0347 39.0697 27.7193 38.901C27.404 38.7323 27.1693 38.4903 27.0153 38.175H26.9933V39H25.7943V31.146H27.0373V34.149ZM27.0043 36.162C27.0043 36.5433 27.0593 36.888 27.1693 37.196C27.2793 37.4967 27.448 37.7387 27.6753 37.922C27.9027 38.098 28.1777 38.186 28.5003 38.186C28.8157 38.186 29.0833 38.0943 29.3033 37.911C29.5233 37.7277 29.6847 37.4857 29.7873 37.185C29.8973 36.877 29.9523 36.536 29.9523 36.162C29.9523 35.788 29.8973 35.447 29.7873 35.139C29.6847 34.831 29.5233 34.5853 29.3033 34.402C29.0833 34.2187 28.812 34.127 28.4893 34.127C28.174 34.127 27.9027 34.215 27.6753 34.391C27.4553 34.5597 27.2867 34.798 27.1693 35.106C27.0593 35.414 27.0043 35.766 27.0043 36.162ZM33.578 36.58C33.578 37.1227 33.6734 37.5223 33.864 37.779C34.0547 38.0283 34.3554 38.153 34.766 38.153C35.184 38.153 35.4994 38.0247 35.712 37.768C35.9247 37.5113 36.031 37.1153 36.031 36.58V33.313H37.285V39H36.075V38.186H36.053C35.8917 38.494 35.6644 38.7323 35.371 38.901C35.085 39.0697 34.7587 39.154 34.392 39.154C33.0134 39.154 32.324 38.4097 32.324 36.921V33.313H33.578V36.58ZM41.9177 34.369C41.7857 34.3397 41.6353 34.325 41.4667 34.325C40.9387 34.325 40.539 34.4937 40.2677 34.831C40.0037 35.1683 39.8717 35.6157 39.8717 36.173V39H38.6287V33.313H39.8277V34.336H39.8497C39.9743 33.9767 40.1797 33.6907 40.4657 33.478C40.759 33.2653 41.1 33.159 41.4887 33.159C41.6427 33.159 41.7857 33.1737 41.9177 33.203V34.369ZM45.9332 34.809C45.9185 34.5523 45.8122 34.3617 45.6142 34.237C45.4162 34.105 45.1448 34.039 44.8002 34.039C44.4922 34.039 44.2465 34.0977 44.0632 34.215C43.8798 34.325 43.7882 34.4973 43.7882 34.732C43.7882 34.9373 43.8798 35.1023 44.0632 35.227C44.2465 35.3443 44.5398 35.447 44.9432 35.535L45.6032 35.689C46.1312 35.8137 46.5455 36.0043 46.8462 36.261C47.1468 36.5177 47.2972 36.877 47.2972 37.339C47.2972 37.7643 47.1835 38.1127 46.9562 38.384C46.7288 38.6553 46.4318 38.8533 46.0652 38.978C45.7058 39.0953 45.3098 39.154 44.8772 39.154C44.1292 39.154 43.5352 39 43.0952 38.692C42.6552 38.384 42.4242 37.933 42.4022 37.339H43.5902C43.6048 37.6397 43.7295 37.8707 43.9642 38.032C44.2062 38.1933 44.5178 38.274 44.8992 38.274C45.2145 38.274 45.4858 38.208 45.7132 38.076C45.9405 37.9367 46.0542 37.735 46.0542 37.471C46.0542 37.2437 45.9625 37.0603 45.7792 36.921C45.5958 36.7817 45.3062 36.668 44.9102 36.58L44.2502 36.426C43.6562 36.294 43.2235 36.107 42.9522 35.865C42.6808 35.6157 42.5452 35.2747 42.5452 34.842C42.5452 34.468 42.6442 34.1563 42.8422 33.907C43.0475 33.6577 43.3225 33.4707 43.6672 33.346C44.0192 33.2213 44.4152 33.159 44.8552 33.159C45.5445 33.159 46.0835 33.302 46.4722 33.588C46.8682 33.874 47.0845 34.281 47.1212 34.809H45.9332ZM53.429 36.47H49.348C49.3627 36.998 49.502 37.4197 49.766 37.735C50.03 38.043 50.404 38.197 50.888 38.197C51.24 38.197 51.526 38.1237 51.746 37.977C51.9733 37.8303 52.12 37.636 52.186 37.394H53.319C53.1723 37.966 52.8863 38.4023 52.461 38.703C52.043 39.0037 51.504 39.154 50.844 39.154C50.2793 39.154 49.788 39.0293 49.37 38.78C48.9593 38.5307 48.644 38.1823 48.424 37.735C48.2113 37.2803 48.105 36.756 48.105 36.162C48.105 35.6047 48.215 35.0987 48.435 34.644C48.655 34.1893 48.9703 33.83 49.381 33.566C49.7917 33.2947 50.2683 33.159 50.811 33.159C51.3683 33.159 51.8413 33.291 52.23 33.555C52.626 33.819 52.923 34.182 53.121 34.644C53.3263 35.106 53.429 35.634 53.429 36.228V36.47ZM52.186 35.623C52.1493 35.161 52.01 34.798 51.768 34.534C51.5333 34.2627 51.2107 34.127 50.8 34.127C50.3967 34.127 50.0667 34.259 49.81 34.523C49.5607 34.787 49.4067 35.1537 49.348 35.623H52.186Z" fill="black" fill-opacity="0.65098"/>
</g>
</g>
</g>
</g>
<defs>
<filter id="filter0_d_803_177420" x="-231.207" y="-28" width="384" height="102" filterUnits="userSpaceOnUse" color-interpolation-filters="sRGB">
<feFlood flood-opacity="0" result="BackgroundImageFix"/>
<feColorMatrix in="SourceAlpha" type="matrix" values="0 0 0 0 0 0 0 0 0 0 0 0 0 0 0 0 0 0 127 0" result="hardAlpha"/>
<feOffset/>
<feGaussianBlur stdDeviation="10"/>
<feComposite in2="hardAlpha" operator="out"/>
<feColorMatrix type="matrix" values="0 0 0 0 0 0 0 0 0 0 0 0 0 0 0 0 0 0 0.16 0"/>
<feBlend mode="normal" in2="BackgroundImageFix" result="effect1_dropShadow_803_177420"/>
<feBlend mode="normal" in="BackgroundImageFix" in2="effect1_dropShadow_803_177420" result="BackgroundImageFix"/>
<feBlend mode="normal" in="SourceGraphic" in2="BackgroundImageFix" result="shape"/>
</filter>
<clipPath id="clip0_803_177420">
<rect width="375" height="1929" fill="white" transform="translate(-227.207 -1853)"/>
</clipPath>
</defs>
</svg>
